# xmcd
#
# Track frame offsets: 
#        150
#        10757
#        25594
#        39363
#        53084
#        66541
#        82818
#        103227
#        119052
#        136782
#        153065
#        168605
#        182045
#        201056
#        210724
#        223787
#        242320
#        261999
#
# Disc length: 3961 seconds
#
# Revision: 1
# Processed by: cddbd v1.5.2PL0 Copyright (c) Steve Scherf et al.
# Submitted via: ExactAudioCopyFreeDBPlugin 1.0
#
DISCID=f50f7712
DTITLE=Various Artist - 30 Jahre Skandal! Spider Murphy Gang
DYEAR=2007
DGENRE=Rock
TTITLE0=Bananafishbones - Zwoa Zigaretten
TTITLE1=Werner Schmidbauer - Sommer in der Stadt
TTITLE2=Klaus Eberhartinger - Rock´n Roll Rendezvous
TTITLE3=Killerpilze - Skandal im Sperrbezirk
TTITLE4=Haindling - Rosemarie
TTITLE5=Rainhard Fendrich - Schickeria
TTITLE6=Willy Michl - Schuitog
TTITLE7=Willy Astor - Sommer in der Elisabeth
TTITLE8=Ludwig Seuss Band - Vis a vis
TTITLE9=Blumentopf - Amerika
TTITLE10=United Balls - Mit´m Frosch im Hals und Schwammerl in die Kni
TTITLE10=e
TTITLE11=Viva Voce - Ich grüße alle und den Rest der Welt
TTITLE12=Dr. Will - Cadillac
TTITLE13=The Fabulous Braincandy - Uh Uh I Francy You (Oh i mog di so)
TTITLE14=Cagey Strings - Rock´n Roll Schuah
TTITLE15=String of Pearls - Herzklopfen
TTITLE16=Claas Vogt feat. B. Flintstone - Autostop
TTITLE17=Michael Mittermeier - Ein Skandal wird 30
EXTD=
EXTT0=
EXTT1=
EXTT2=
EXTT3=
EXTT4=
EXTT5=
EXTT6=
EXTT7=
EXTT8=
EXTT9=
EXTT10=
EXTT11=
EXTT12=
EXTT13=
EXTT14=
EXTT15=
EXTT16=
EXTT17=
PLAYORDER=
